<svg xmlns="http://www.w3.org/2000/svg" viewBox="0 0 420.2 208.6" width="420" height="209" role="img" aria-label="neVus wordmark">
<g transform="translate(24.0,148.86)">
<path d="M72.89101300920758 -44.8214111328125V0.0H58.0340096609933V-41.1214599609375Q58.0340096609933 -45.91613333565848 55.69292340959821 -49.83669389997209Q53.351837158203125 -53.75725446428571 49.44645472935268 -56.08316258021763Q45.54107230050223 -58.40907069614955 40.74639892578125 -58.40907069614955Q35.9927978515625 -58.40907069614955 32.051701136997764 -56.08316258021763Q28.110604422433035 -53.75725446428571 25.784696306501115 -49.83669389997209Q23.458788190569194 -45.91613333565848 23.458788190569194 -41.1214599609375V0.0H8.60178484235491L8.571428571428571 -71.42857142857143H23.428431919642854L23.458788190569194 -63.848148890904014Q27.15343366350446 -68.27496337890625 32.58738054547991 -70.85176740373885Q38.021327427455354 -73.42857142857143 44.28385271344866 -73.42857142857143Q52.203499930245535 -73.42857142857143 58.694575718470986 -69.57589067731584Q65.18565150669643 -65.72320992606026 69.038332257952 -59.23213413783482Q72.89101300920758 -52.741058349609375 72.89101300920758 -44.8214111328125Z" fill="#EDE8E0"/>
<path d="M115.42857142857143 1.857142857142857Q105.57142857142857 1.857142857142857 97.46428571428572 -3.214285714285714Q89.35714285714286 -8.285714285714285 84.53571428571429 -16.83660670689174Q79.71428571428572 -25.387499128069194 79.71428571428572 -35.74464198521205Q79.71428571428572 -43.57142857142857 82.5 -50.39285714285714Q85.28571428571429 -57.21428571428571 90.17857142857143 -62.39285714285714Q95.07142857142857 -67.57142857142857 101.57142857142857 -70.5Q108.07142857142857 -73.42857142857143 115.42857142857143 -73.42857142857143Q123.6303492954799 -73.42857142857143 130.49105834960938 -70.02768598284041Q137.35176740373885 -66.62680053710938 142.20355224609375 -60.66520254952567Q147.05533708844865 -54.70360456194196 149.3526633126395 -46.950038364955354Q151.64998953683036 -39.19647216796875 150.70536150251115 -30.53218296595982H95.62841796875Q96.54627336774554 -25.567844935825892 99.25165230887276 -21.622268676757812Q101.95703125 -17.676692417689733 106.10528128487724 -15.373990740094866Q110.25353131975447 -13.0712890625 115.42857142857143 -12.999860491071427Q120.87147739955357 -12.969504220145089 125.31615774972099 -15.712389264787944Q129.7608380998884 -18.455274309430802 132.62335641043526 -23.22496686662946L147.74464198521207 -19.71428571428571Q143.42857142857144 -10.214285714285714 134.78571428571428 -4.178571428571428Q126.14285714285714 1.857142857142857 115.42857142857143 1.857142857142857ZM95.13020978655135 -41.851732526506694H135.71621704101562Q135.00372314453125 -46.976776123046875 132.12066868373324 -51.16163635253906Q129.23761422293526 -55.34649658203125 124.89561462402344 -57.83312770298549Q120.55361502511161 -60.31975882393973 115.42857142857143 -60.31975882393973Q110.3338841029576 -60.31975882393973 106.032956804548 -57.874200003487715Q101.73202950613839 -55.42864118303571 98.88468933105469 -51.24378095354352Q96.03734915597099 -47.05892072405133 95.13020978655135 -41.851732526506694Z" fill="#EDE8E0"/>
<path d="M183.60888235909596 0.0 147.32316807338168 -100.0H163.05516270228793L192.94807216099326 -17.67128208705357L222.9231262207031 -100.0H238.65512084960935L202.32833426339283 0.0Z" fill="#5FB3AE"/>
<path d="M242.1428571428571 -26.75001743861607V-71.42857142857143H256.9998604910714V-30.44996861049107Q256.9998604910714 -25.655295235770087 259.3409467424665 -21.734734671456472Q261.6820329938616 -17.814174107142858 265.6231297084263 -15.488265991210938Q269.56422642299106 -13.162357875279017 274.28747122628346 -13.162357875279017Q279.0821446010044 -13.162357875279017 282.9821690150669 -15.488265991210938Q286.8821934291294 -17.814174107142858 289.20810154506137 -21.734734671456472Q291.53400966099326 -25.655295235770087 291.53400966099326 -30.44996861049107V-71.42857142857143H306.39101300920754L306.4624415806361 0.0H291.6054382324218L291.53400966099326 -7.723279680524553Q287.83936418805797 -3.296465192522321 282.4259534563337 -0.7196611676897321Q277.0125427246093 1.857142857142857 270.75001743861606 1.857142857142857Q262.86072649274547 1.857142857142857 256.35447256905684 -1.995537894112723Q249.84821864536826 -5.848218645368303 245.9955378941127 -12.339294433593748Q242.1428571428571 -18.830370221819194 242.1428571428571 -26.75001743861607Z" fill="#EDE8E0"/>
<path d="M340.43394688197543 1.3267865862165178Q334.75894165039057 1.0321480887276786 329.43036324637274 -0.9071393694196427Q324.10178484235485 -2.846426827566964 320.0499965122767 -6.183929443359374Q315.9982081821986 -9.521432059151785 313.99999999999994 -14.0L326.61952863420754 -19.41423688616071Q327.5802481515067 -17.478498186383927 329.91330610002785 -15.642769949776785Q332.2463640485491 -13.807041713169642 335.38121032714844 -12.611500331333705Q338.51605660574774 -11.415958949497767 341.95892769949774 -11.415958949497767Q345.2536010742187 -11.415958949497767 348.1741616385323 -12.404364449637276Q351.09472220284596 -13.392769949776785 352.941166469029 -15.35796901157924Q354.787610735212 -17.323168073381694 354.787610735212 -20.176762172154017Q354.787610735212 -23.285714285714285 352.6867043631417 -25.019657679966517Q350.5857979910714 -26.75360107421875 347.4464896065848 -27.71075439453125Q344.30718122209817 -28.66790771484375 341.16608101981024 -29.487561907087052Q334.1107090541294 -31.103646414620535 328.309816632952 -33.831318446568076Q322.5089242117745 -36.558990478515625 319.0616084507533 -40.876835414341514Q315.6142926897321 -45.19468035016741 315.6142926897321 -51.51967511858258Q315.6142926897321 -58.38395036969866 319.33839852469305 -63.39197867257255Q323.062504359654 -68.40000697544643 329.08750261579235 -71.12857491629464Q335.11250087193076 -73.85714285714285 342.01964024135043 -73.85714285714285Q350.5821446010044 -73.85714285714285 357.7303597586495 -70.22320992606026Q364.8785749162946 -66.58927699497768 368.66962977818076 -60.24285016741071L356.86437988281244 -53.24112810407366Q355.7608032226562 -55.380436488560264 353.62774876185824 -57.083127702985486Q351.49469430106024 -58.78581891741071 348.7785993303571 -59.83314514160156Q346.062504359654 -60.88047136579241 343.17855398995533 -61.01261247907366Q339.48745727539057 -61.14475359235491 336.3936832972935 -60.176884242466514Q333.2999093191964 -59.209014892578125 331.43828691755016 -57.1473890032087Q329.576664515904 -55.085763113839285 329.576664515904 -51.8857421875Q329.576664515904 -48.74643380301339 331.78202601841514 -47.18124171665737Q333.9873875209263 -45.61604963030134 337.3704419817243 -44.71514674595424Q340.7534964425223 -43.81424386160714 344.33746773856024 -42.65708705357142Q350.68568638392856 -40.616014753069194 356.2785470145089 -37.73030744280133Q361.8714076450892 -34.84460013253348 365.2955169677734 -30.642822265625Q368.71962629045754 -26.441044398716517 368.5874851771763 -20.380331856863837Q368.5874851771763 -13.648197719029017 364.54820469447543 -8.589276994977679Q360.5089242117745 -3.530356270926339 354.0928606305803 -0.888395036969866Q347.6767970493861 1.753566196986607 340.43394688197543 1.3267865862165178Z" fill="#EDE8E0"/>
</g>
</svg>
