<svg xmlns="http://www.w3.org/2000/svg" viewBox="0 0 216 404" width="648" height="1212"><rect width="216.0" height="404.0" fill="#F6F1EA"/><path d="M118.2,49.3 119.0,47.8 121.4,45.4 123.4,42.9 124.6,41.0 125.9,38.5 127.0,35.4 127.6,32.6 128.0,29.2 127.9,26.3 127.5,22.9 126.8,20.1 125.6,16.9 124.1,14.0 122.2,11.4 120.3,9.5 117.9,7.6 115.2,6.1 111.9,4.9 108.0,4.5 104.6,4.8 101.2,5.9 97.7,7.8 94.9,10.2 92.2,13.5 90.4,16.9 89.0,20.6 88.2,24.5 88.0,28.6 88.4,32.6 89.5,37.0 91.4,41.0 93.5,44.2 96.9,47.6 97.7,49.1 98.0,50.4 98.0,51.2 98.0,51.2 118.0,51.2 118.0,51.2 118.0,50.6Z" fill="#c9b7a3" stroke="#F6F1EA" stroke-width="0.6"/><path d="M120.3,62.2 119.5,61.7 118.3,60.1 118.0,58.4 118.0,51.2 98.0,51.2 98.0,58.4 97.7,59.9 97.3,60.9 96.5,61.7 95.7,62.2 104.0,112.1 104.0,112.1 104.0,112.1 108.0,112.1 112.0,112.1 112.1,111.5 112.0,112.1Z" fill="#9fbfb9" stroke="#F6F1EA" stroke-width="0.6"/><path d="M97.9,75.5 80.1,82.8 80.1,82.9 71.8,131.1 108.0,131.1 108.0,112.1 104.0,112.1 104.0,112.1 104.0,112.1 97.9,75.5Z" fill="#9fbfb9" stroke="#F6F1EA" stroke-width="0.6"/><path d="M118.1,75.5 112.1,111.5 112.0,112.1 108.0,112.1 108.0,131.1 144.2,131.1 135.9,82.8Z" fill="#9fbfb9" stroke="#F6F1EA" stroke-width="0.6"/><path d="M108.0,131.1 71.8,131.1 71.8,131.1 71.8,131.3 72.6,131.7 73.8,132.9 74.4,134.4 76.0,148.5 74.0,167.9 73.4,170.1 108.0,170.1Z" fill="#9fbfb9" stroke="#F6F1EA" stroke-width="0.6"/><path d="M108.0,131.1 108.0,131.1 108.0,170.1 142.6,170.1 142.0,167.9 140.0,148.5 141.6,134.4 142.3,132.7 143.7,131.4 144.2,131.2 144.2,131.1Z" fill="#9fbfb9" stroke="#F6F1EA" stroke-width="0.6"/><path d="M68.0,190.0 66.8,204.6 66.8,204.6 108.0,220.0 149.2,204.6 149.2,204.6 108.0,220.0 108.0,170.1 108.0,170.1 73.4,170.1Z" fill="#9fbfb9" stroke="#F6F1EA" stroke-width="0.6"/><path d="M148.0,190.0 142.6,170.1 108.0,170.1 108.0,220.0 149.2,204.6Z" fill="#9fbfb9" stroke="#F6F1EA" stroke-width="0.6"/><path d="M66.8,204.8 65.9,208.3 65.5,212.1 69.6,254.6 100.4,254.6 102.8,230.2 103.4,228.4 104.5,227.1 106.1,226.3 108.0,226.1 108.0,220.0 66.8,204.6Z" fill="#b7c9a3" stroke="#F6F1EA" stroke-width="0.6"/><path d="M108.5,226.1 110.3,226.5 111.6,227.2 112.6,228.4 113.1,229.8 115.6,254.6 146.4,254.6 150.5,212.1 150.1,208.3 149.2,204.8 149.2,204.6 108.0,220.0 108.0,226.1Z" fill="#b7c9a3" stroke="#F6F1EA" stroke-width="0.6"/><path d="M72.0,278.6 71.7,298.6 97.1,298.6 98.0,278.8 100.4,254.6 69.6,254.6Z" fill="#b7c9a3" stroke="#F6F1EA" stroke-width="0.6"/><path d="M118.0,278.8 118.9,298.6 144.3,298.6 144.0,278.6 146.4,254.6 115.6,254.6Z" fill="#b7c9a3" stroke="#F6F1EA" stroke-width="0.6"/><path d="M71.6,313.2 74.2,329.1 94.7,329.1 96.4,313.2 97.1,298.6 71.7,298.6Z" fill="#b7c9a3" stroke="#F6F1EA" stroke-width="0.6"/><path d="M119.6,313.2 121.3,329.1 141.8,329.1 144.4,313.2 144.3,298.6 118.9,298.6Z" fill="#b7c9a3" stroke="#F6F1EA" stroke-width="0.6"/><path d="M77.3,347.5 75.5,357.1 92.8,357.1 93.0,350.1 92.7,346.9 94.7,329.1 74.2,329.1Z" fill="#b7c9a3" stroke="#F6F1EA" stroke-width="0.6"/><path d="M123.3,346.9 123.0,350.1 123.2,357.1 140.5,357.1 138.7,347.5 141.8,329.1 121.3,329.1Z" fill="#b7c9a3" stroke="#F6F1EA" stroke-width="0.6"/><path d="M70.1,387.3 70.0,389.6 70.3,391.7 71.0,393.7 71.9,395.2 73.2,396.7 74.4,397.8 75.9,398.7 77.8,399.5 79.4,399.9 81.1,400.0 83.1,399.8 84.7,399.4 86.2,398.7 87.9,397.5 89.2,396.3 90.4,394.7 91.2,393.2 91.7,391.6 92.0,389.5 92.8,357.1 75.5,357.1Z" fill="#b7c9a3" stroke="#F6F1EA" stroke-width="0.6"/><path d="M124.0,389.5 124.2,391.1 125.0,393.7 126.2,395.6 128.0,397.5 130.2,398.9 132.4,399.7 135.1,400.0 137.7,399.7 140.2,398.7 142.4,397.1 144.2,395.1 145.4,392.7 146.0,389.6 145.9,387.3 140.5,357.1 123.2,357.1Z" fill="#b7c9a3" stroke="#F6F1EA" stroke-width="0.6"/><path d="M70.0,68.5 62.5,77.0 62.9,81.3 62.8,82.7 57.5,99.1 57.5,99.1 76.0,106.5 76.0,106.5 80.1,82.9 80.1,82.8 97.9,75.5 95.7,62.2 95.7,62.2 94.9,62.7 85.2,63.4 84.0,63.5 78.7,65.4Z" fill="#c9a3b7" stroke="#F6F1EA" stroke-width="0.6"/><path d="M118.1,75.5 135.9,82.8 135.9,82.8 140.0,106.5 140.0,106.5 158.5,99.1 158.5,99.1 153.2,82.7 153.1,81.3 153.5,77.0 146.0,68.5 137.3,65.4 132.0,63.5 130.8,63.4 121.1,62.7 120.3,62.2 120.3,62.2Z" fill="#c9a3b7" stroke="#F6F1EA" stroke-width="0.6"/><path d="M57.5,99.1 45.8,135.4 62.6,141.8 65.8,133.6 67.0,132.0 68.7,131.0 69.7,130.8 70.8,130.9 71.8,131.3 71.8,131.1 71.8,131.1 76.0,106.5Z" fill="#c9a3b7" stroke="#F6F1EA" stroke-width="0.6"/><path d="M158.5,99.1 140.0,106.5 144.2,131.1 144.2,131.2 145.4,130.8 147.3,131.0 149.0,132.0 150.2,133.6 153.4,141.8 170.2,135.4Z" fill="#c9a3b7" stroke="#F6F1EA" stroke-width="0.6"/><path d="M37.5,161.7 37.5,161.7 52.3,167.3 52.3,167.3 62.6,141.8 62.6,141.8 62.6,141.8 45.8,135.4 45.8,135.4 41.9,147.5Z" fill="#c9a3b7" stroke="#F6F1EA" stroke-width="0.6"/><path d="M170.2,135.4 153.4,141.8 163.7,167.3 163.7,167.3 178.5,161.7 178.5,161.7 174.1,147.6Z" fill="#c9a3b7" stroke="#F6F1EA" stroke-width="0.6"/><path d="M29.2,188.2 42.0,193.1 52.3,167.3 37.5,161.7Z" fill="#c9a3b7" stroke="#F6F1EA" stroke-width="0.6"/><path d="M178.5,161.7 163.7,167.3 174.0,193.1 186.8,188.2Z" fill="#c9a3b7" stroke="#F6F1EA" stroke-width="0.6"/><path d="M27.3,193.9 25.8,195.8 25.1,197.2 13.0,229.1 12.6,230.7 12.5,232.4 12.7,234.0 13.1,235.1 13.3,235.6 14.1,237.0 15.3,238.3 16.6,239.3 18.1,240.0 19.7,240.4 22.3,240.4 24.9,239.5 25.0,239.5 27.0,238.0 28.7,235.7 39.2,202.2 39.7,198.7 42.0,193.1 29.2,188.2 29.2,188.2 27.8,192.9Z" fill="#c9a3b7" stroke="#F6F1EA" stroke-width="0.6"/><path d="M203.5,231.5 203.0,229.1 190.9,197.2 190.2,195.8 188.7,193.9 188.2,192.9 186.8,188.2 186.8,188.2 174.0,193.1 176.3,198.7 176.8,202.2 186.9,234.4 187.7,236.3 188.5,237.4 189.6,238.5 191.2,239.5 191.8,239.9 193.3,240.3 194.6,240.5 196.2,240.4 197.5,240.1 200.0,238.9 201.0,238.0 202.0,236.8 202.7,235.6 202.9,235.1 203.2,234.1Z" fill="#c9a3b7" stroke="#F6F1EA" stroke-width="0.6"/><path d="M27.8,192.9 27.3,193.9 25.8,195.8 25.1,197.2 13.0,229.1 12.6,230.7 12.5,232.4 12.7,234.0 13.3,235.6 14.1,237.0 15.3,238.3 16.6,239.3 18.1,240.0 19.7,240.4 22.3,240.4 25.0,239.5 27.0,238.0 28.7,235.7 39.2,202.2 39.7,198.7 65.8,133.6 67.0,132.0 68.7,131.0 69.7,130.8 70.8,130.9 72.6,131.7 73.8,132.9 74.4,134.4 76.0,148.5 74.0,167.9 68.0,190.0 66.8,204.8 65.9,208.3 65.5,212.1 72.0,278.6 71.6,313.2 77.3,347.5 70.1,387.3 70.0,389.6 70.3,391.7 71.0,393.7 71.9,395.2 73.2,396.7 74.4,397.8 75.9,398.7 77.8,399.5 79.4,399.9 81.1,400.0 83.1,399.8 84.7,399.4 86.2,398.7 87.9,397.5 89.2,396.3 90.4,394.7 91.2,393.2 91.7,391.6 92.0,389.5 93.0,350.1 92.7,346.9 96.4,313.2 98.0,278.8 102.8,230.2 103.4,228.4 104.5,227.1 106.1,226.3 108.5,226.1 110.3,226.5 111.6,227.2 112.6,228.4 113.1,229.8 118.0,278.8 119.6,313.2 123.3,346.9 123.0,350.1 124.0,389.5 124.2,391.1 125.0,393.7 126.2,395.6 128.0,397.5 130.2,398.9 132.4,399.7 135.1,400.0 137.7,399.7 140.2,398.7 142.4,397.1 144.2,395.1 145.4,392.7 146.0,389.6 145.9,387.3 138.7,347.5 144.4,313.2 144.0,278.6 150.5,212.1 150.1,208.3 149.2,204.8 148.0,190.0 142.0,167.9 140.0,148.5 141.6,134.4 142.3,132.7 143.7,131.4 145.4,130.8 147.3,131.0 149.0,132.0 150.2,133.6 176.3,198.7 176.8,202.2 186.9,234.4 187.7,236.3 188.5,237.4 189.6,238.5 191.8,239.9 193.3,240.3 194.6,240.5 196.2,240.4 197.5,240.1 200.0,238.9 201.0,238.0 202.0,236.8 202.7,235.6 203.2,234.1 203.5,231.5 203.0,229.1 190.9,197.2 190.2,195.8 188.7,193.9 188.2,192.9 174.1,147.6 153.2,82.7 153.1,81.3 153.5,77.0 146.0,68.5 132.0,63.5 121.1,62.7 119.5,61.7 118.3,60.1 118.0,58.4 118.0,50.6 118.2,49.3 119.0,47.8 121.4,45.4 123.4,42.9 124.6,41.0 125.9,38.5 127.0,35.4 127.6,32.6 128.0,29.2 127.9,26.3 127.5,22.9 126.8,20.1 125.6,16.9 124.1,14.0 122.2,11.4 120.3,9.5 117.9,7.6 115.2,6.1 111.9,4.9 108.0,4.5 104.6,4.8 101.2,5.9 97.7,7.8 94.9,10.2 92.2,13.5 90.4,16.9 89.0,20.6 88.2,24.5 88.0,28.6 88.4,32.6 89.5,37.0 91.4,41.0 93.5,44.2 96.9,47.6 97.7,49.1 98.0,50.4 98.0,58.4 97.7,59.9 97.3,60.9 96.5,61.7 94.9,62.7 84.0,63.5 70.0,68.5 62.5,77.0 62.9,81.3 62.8,82.7 41.9,147.5Z" fill="none" stroke="#2B2A28" stroke-width="0.8"/><text x="108.0" y="27.4" font-size="4" text-anchor="middle" fill="#2B2A28" font-family="sans-serif">1100</text><text x="108.0" y="86.9" font-size="4" text-anchor="middle" fill="#2B2A28" font-family="sans-serif">1200</text><text x="89.6" y="97.5" font-size="4" text-anchor="middle" fill="#2B2A28" font-family="sans-serif">1250</text><text x="126.4" y="97.2" font-size="4" text-anchor="middle" fill="#2B2A28" font-family="sans-serif">1251</text><text x="91.5" y="158.2" font-size="4" text-anchor="middle" fill="#2B2A28" font-family="sans-serif">1300</text><text x="124.5" y="158.2" font-size="4" text-anchor="middle" fill="#2B2A28" font-family="sans-serif">1301</text><text x="87.7" y="197.3" font-size="4" text-anchor="middle" fill="#2B2A28" font-family="sans-serif">1350</text><text x="128.3" y="197.3" font-size="4" text-anchor="middle" fill="#2B2A28" font-family="sans-serif">1351</text><text x="85.1" y="229.3" font-size="4" text-anchor="middle" fill="#2B2A28" font-family="sans-serif">1400</text><text x="130.9" y="229.1" font-size="4" text-anchor="middle" fill="#2B2A28" font-family="sans-serif">1401</text><text x="85.0" y="266.6" font-size="4" text-anchor="middle" fill="#2B2A28" font-family="sans-serif">1450</text><text x="131.0" y="266.6" font-size="4" text-anchor="middle" fill="#2B2A28" font-family="sans-serif">1451</text><text x="84.2" y="321.1" font-size="4" text-anchor="middle" fill="#2B2A28" font-family="sans-serif">1500</text><text x="131.8" y="321.1" font-size="4" text-anchor="middle" fill="#2B2A28" font-family="sans-serif">1501</text><text x="84.7" y="338.0" font-size="4" text-anchor="middle" fill="#2B2A28" font-family="sans-serif">1550</text><text x="131.3" y="338.0" font-size="4" text-anchor="middle" fill="#2B2A28" font-family="sans-serif">1551</text><text x="82.6" y="372.2" font-size="4" text-anchor="middle" fill="#2B2A28" font-family="sans-serif">1600</text><text x="133.4" y="372.2" font-size="4" text-anchor="middle" fill="#2B2A28" font-family="sans-serif">1601</text><text x="69.4" y="91.0" font-size="4" text-anchor="middle" fill="#2B2A28" font-family="sans-serif">1650</text><text x="146.6" y="90.9" font-size="4" text-anchor="middle" fill="#2B2A28" font-family="sans-serif">1651</text><text x="62.6" y="118.6" font-size="4" text-anchor="middle" fill="#2B2A28" font-family="sans-serif">1700</text><text x="153.4" y="118.7" font-size="4" text-anchor="middle" fill="#2B2A28" font-family="sans-serif">1701</text><text x="48.5" y="154.6" font-size="4" text-anchor="middle" fill="#2B2A28" font-family="sans-serif">1750</text><text x="167.5" y="154.6" font-size="4" text-anchor="middle" fill="#2B2A28" font-family="sans-serif">1751</text><text x="40.3" y="177.8" font-size="4" text-anchor="middle" fill="#2B2A28" font-family="sans-serif">1800</text><text x="175.7" y="177.8" font-size="4" text-anchor="middle" fill="#2B2A28" font-family="sans-serif">1801</text><text x="26.5" y="215.7" font-size="4" text-anchor="middle" fill="#2B2A28" font-family="sans-serif">1850</text><text x="189.5" y="215.7" font-size="4" text-anchor="middle" fill="#2B2A28" font-family="sans-serif">1851</text><text x="4" y="8" font-size="6" fill="#2B2A28" font-family="sans-serif">front</text></svg>
